<svg width="35" height="38" viewBox="0 0 35 38" fill="none" xmlns="http://www.w3.org/2000/svg">
  <path d="M27.5058 18.1251L8.41467 7.12611C8.26822 7.04077 8.1029 6.99732 7.93534 7.00013C7.76778 7.00294 7.60387 7.0519 7.46011 7.14211C7.31903 7.2316 7.2025 7.35785 7.12187 7.50855C7.04123 7.65926 6.99925 7.82927 7.00001 8.00203V30.0001C7.00024 30.1738 7.04366 30.3445 7.12602 30.4953C7.20837 30.646 7.3268 30.7718 7.46965 30.86C7.6161 30.9521 7.78377 31.0005 7.95457 31C8.11546 30.9999 8.27373 30.9573 8.41467 30.876L27.5058 19.877C27.6555 19.7907 27.7803 19.6639 27.8672 19.5098C27.9541 19.3557 28 19.18 28 19.0011C28 18.8221 27.9541 18.6464 27.8672 18.4923C27.7803 18.3383 27.6555 18.2115 27.5058 18.1251Z" fill="white"></path>
</svg>